<?xml version="1.0" encoding="UTF-8"?>
<!DOCTYPE svg PUBLIC "-//W3C//DTD SVG 1.1//EN" "http://www.w3.org/Graphics/SVG/1.1/DTD/svg11.dtd">
<!-- Creator: CorelDRAW 2020 (64 Bit) -->
<svg xmlns="http://www.w3.org/2000/svg" xml:space="preserve" width="738px" height="860px" version="1.1" style="shape-rendering:geometricPrecision; text-rendering:geometricPrecision; image-rendering:optimizeQuality; fill-rule:evenodd; clip-rule:evenodd"
viewBox="0 0 219 255.04"
 xmlns:xlink="http://www.w3.org/1999/xlink"
 xmlns:xodm="http://www.corel.com/coreldraw/odm/2003">
 <defs>
  <style type="text/css">
   <![CDATA[
    .fil0 {fill:white;fill-rule:nonzero}
   ]]>
  </style>
 </defs>
 <g id="Camada_x0020_1">
  <metadata id="CorelCorpID_0Corel-Layer"/>
  <g id="_2855749025056">
   <g>
    <g>
     <g>
      <path class="fil0" d="M190.23 148.31l-20.03 0 -141.43 0c-15.86,0 -28.77,12.91 -28.77,28.77 0,15.87 12.91,28.77 28.77,28.77l16.86 0 -2.18 1.77c-2.5,2.03 -3.63,5.26 -2.94,8.41 0.69,3.16 3.06,5.62 6.19,6.42l1.13 0.29 -5.58 21.73c-0.68,2.67 0.93,5.38 3.59,6.06l16.94 4.35c0.41,0.11 0.82,0.16 1.24,0.16 0.88,0 1.76,-0.24 2.53,-0.69 1.14,-0.68 1.97,-1.77 2.29,-3.05l5.58 -21.74 1.13 0.29c3.13,0.81 6.39,-0.21 8.52,-2.64 2.12,-2.43 2.68,-5.8 1.47,-8.79l-5.11 -12.57 89.77 0 20.03 0 0 0c15.86,0 28.77,-12.9 28.77,-28.77 0,-15.86 -12.91,-28.77 -28.77,-28.77zm-141.32 70.22l0 0.01c0,0 0,-0.01 0,-0.01 0,0 0,0 0,0zm23.79 0.3c-1.46,-0.37 -2.97,-0.15 -4.27,0.61 -1.29,0.77 -2.21,1.99 -2.58,3.44l-5.42 21.12 -7.29 -1.88 5.42 -21.11c0.37,-1.45 0.16,-2.97 -0.61,-4.26 -0.76,-1.29 -1.99,-2.21 -3.44,-2.58l-2.52 -0.65 9.44 -7.67 6.2 -5.03 2.05 5.03 5.54 13.63 -2.52 -0.65zm92.52 -22.94l-88.84 0 -2.06 -5.06c-0.59,-1.46 -1.84,-2.55 -3.37,-2.95 -1.53,-0.39 -3.16,-0.03 -4.38,0.96l-8.68 7.05 -29.12 0c-10.37,0 -18.81,-8.44 -18.81,-18.81 0,-10.37 8.44,-18.8 18.81,-18.8l136.45 0 0 37.61 0 0zm25.01 0l-15.05 0 0 -37.61 15.05 0c10.37,0 18.81,8.43 18.81,18.8 0,10.37 -8.44,18.81 -18.81,18.81z"/>
      <path class="fil0" d="M193.12 165.67c-1.71,-2.16 -4.84,-2.52 -7,-0.82 -2.16,1.71 -2.52,4.84 -0.82,7l3.36 4.24 -3.36 4.25c-1.7,2.15 -1.34,5.29 0.82,6.99 0.92,0.73 2.01,1.08 3.09,1.08 1.47,0 2.93,-0.65 3.91,-1.9l5.8 -7.33c1.43,-1.81 1.43,-4.37 0,-6.18l-5.8 -7.33z"/>
      <path class="fil0" d="M30.29 178.99c0.12,0.3 0.28,0.59 0.46,0.86 0.18,0.27 0.39,0.52 0.62,0.75 0.23,0.23 0.48,0.44 0.76,0.62 0.26,0.18 0.55,0.34 0.85,0.46 0.31,0.12 0.62,0.22 0.93,0.28 0.33,0.07 0.65,0.1 0.98,0.1 0.32,0 0.65,-0.03 0.97,-0.1 0.32,-0.06 0.63,-0.16 0.93,-0.28 0.3,-0.12 0.6,-0.28 0.86,-0.46 0.27,-0.18 0.53,-0.39 0.76,-0.62 0.23,-0.22 0.44,-0.48 0.62,-0.75 0.18,-0.27 0.33,-0.56 0.46,-0.86 0.12,-0.3 0.22,-0.62 0.28,-0.94 0.07,-0.32 0.1,-0.64 0.1,-0.97 0,-0.32 -0.03,-0.65 -0.1,-0.97 -0.06,-0.32 -0.16,-0.63 -0.28,-0.93 -0.13,-0.3 -0.28,-0.59 -0.46,-0.86 -0.18,-0.28 -0.39,-0.53 -0.62,-0.76 -0.23,-0.23 -0.49,-0.44 -0.76,-0.62 -0.26,-0.18 -0.56,-0.34 -0.86,-0.46 -0.3,-0.12 -0.61,-0.22 -0.93,-0.28 -1.62,-0.33 -3.34,0.2 -4.49,1.36 -0.23,0.23 -0.44,0.48 -0.62,0.76 -0.18,0.27 -0.34,0.56 -0.46,0.86 -0.13,0.3 -0.22,0.61 -0.29,0.93 -0.06,0.32 -0.09,0.65 -0.09,0.97 0,0.33 0.03,0.66 0.09,0.97 0.07,0.32 0.16,0.64 0.29,0.94z"/>
      <path class="fil0" d="M56.78 178.99c0.12,0.3 0.28,0.59 0.46,0.86 0.18,0.27 0.39,0.52 0.62,0.75 0.23,0.23 0.48,0.44 0.76,0.62 0.27,0.18 0.55,0.34 0.85,0.46 0.31,0.12 0.62,0.22 0.93,0.28 0.33,0.07 0.66,0.1 0.98,0.1 0.32,0 0.65,-0.03 0.97,-0.1 0.32,-0.06 0.63,-0.16 0.93,-0.28 0.31,-0.12 0.6,-0.28 0.87,-0.46 0.27,-0.18 0.52,-0.39 0.75,-0.62 0.23,-0.22 0.44,-0.48 0.62,-0.75 0.18,-0.27 0.33,-0.56 0.46,-0.86 0.12,-0.3 0.22,-0.62 0.28,-0.94 0.07,-0.32 0.1,-0.64 0.1,-0.97 0,-0.32 -0.03,-0.65 -0.1,-0.97 -0.06,-0.32 -0.16,-0.63 -0.28,-0.93 -0.13,-0.3 -0.28,-0.59 -0.46,-0.86 -0.18,-0.28 -0.39,-0.53 -0.62,-0.76 -1.15,-1.16 -2.87,-1.69 -4.5,-1.36 -0.31,0.06 -0.62,0.16 -0.93,0.28 -0.3,0.12 -0.58,0.28 -0.85,0.46 -0.28,0.18 -0.53,0.39 -0.76,0.62 -0.23,0.23 -0.44,0.48 -0.62,0.76 -0.18,0.27 -0.34,0.56 -0.46,0.86 -0.13,0.3 -0.22,0.61 -0.29,0.93 -0.06,0.32 -0.09,0.65 -0.09,0.97 0,0.33 0.03,0.66 0.09,0.97 0.07,0.32 0.16,0.64 0.29,0.94z"/>
      <path class="fil0" d="M83.27 178.99c0.13,0.3 0.28,0.59 0.46,0.86 0.18,0.27 0.39,0.52 0.62,0.75 0.23,0.23 0.48,0.44 0.76,0.62 0.27,0.18 0.55,0.34 0.86,0.46 0.3,0.12 0.61,0.22 0.93,0.28 0.32,0.07 0.65,0.1 0.97,0.1 0.32,0 0.65,-0.03 0.97,-0.1 0.32,-0.06 0.63,-0.16 0.93,-0.28 0.31,-0.12 0.6,-0.28 0.86,-0.46 0.28,-0.18 0.53,-0.39 0.76,-0.62 0.23,-0.22 0.44,-0.48 0.62,-0.75 0.18,-0.27 0.33,-0.56 0.46,-0.86 0.12,-0.3 0.22,-0.62 0.28,-0.94 0.07,-0.32 0.1,-0.64 0.1,-0.97 0,-0.32 -0.03,-0.65 -0.1,-0.97 -0.06,-0.32 -0.16,-0.63 -0.28,-0.93 -0.13,-0.3 -0.28,-0.59 -0.46,-0.86 -0.18,-0.28 -0.39,-0.53 -0.62,-0.76 -1.15,-1.16 -2.88,-1.69 -4.49,-1.36 -0.32,0.06 -0.63,0.16 -0.94,0.28 -0.3,0.12 -0.59,0.28 -0.85,0.46 -0.28,0.18 -0.53,0.39 -0.76,0.62 -0.23,0.23 -0.44,0.48 -0.62,0.76 -0.18,0.27 -0.33,0.56 -0.46,0.86 -0.12,0.3 -0.22,0.61 -0.28,0.93 -0.07,0.32 -0.1,0.65 -0.1,0.97 0,0.33 0.03,0.66 0.1,0.97 0.06,0.32 0.16,0.64 0.28,0.94z"/>
      <path class="fil0" d="M109.76 178.99c0.13,0.3 0.28,0.59 0.46,0.86 0.18,0.27 0.39,0.52 0.62,0.75 0.23,0.23 0.48,0.44 0.76,0.62 0.27,0.18 0.55,0.34 0.86,0.46 0.3,0.12 0.61,0.22 0.93,0.28 0.32,0.07 0.65,0.1 0.97,0.1 0.32,0 0.65,-0.03 0.97,-0.1 0.32,-0.06 0.63,-0.16 0.93,-0.28 0.31,-0.12 0.6,-0.28 0.87,-0.46 0.27,-0.18 0.52,-0.39 0.75,-0.62 0.23,-0.22 0.44,-0.48 0.62,-0.75 0.18,-0.27 0.33,-0.56 0.46,-0.86 0.12,-0.3 0.22,-0.62 0.28,-0.94 0.07,-0.32 0.1,-0.64 0.1,-0.97 0,-0.32 -0.03,-0.65 -0.1,-0.97 -0.06,-0.32 -0.16,-0.63 -0.28,-0.93 -0.13,-0.3 -0.28,-0.59 -0.46,-0.86 -0.18,-0.28 -0.39,-0.53 -0.62,-0.76 -1.15,-1.16 -2.88,-1.69 -4.49,-1.36 -0.32,0.06 -0.63,0.16 -0.93,0.28 -0.31,0.12 -0.59,0.28 -0.86,0.46 -0.28,0.18 -0.53,0.39 -0.76,0.62 -0.23,0.23 -0.44,0.48 -0.62,0.76 -0.18,0.27 -0.33,0.56 -0.46,0.86 -0.12,0.3 -0.22,0.61 -0.28,0.93 -0.07,0.32 -0.1,0.65 -0.1,0.97 0,0.33 0.03,0.66 0.1,0.97 0.06,0.32 0.16,0.64 0.28,0.94z"/>
      <path class="fil0" d="M136.25 178.99c0.13,0.3 0.28,0.59 0.46,0.86 0.18,0.27 0.39,0.52 0.62,0.75 0.23,0.23 0.48,0.44 0.76,0.62 0.27,0.18 0.56,0.34 0.86,0.46 0.3,0.12 0.61,0.22 0.93,0.28 0.32,0.07 0.65,0.1 0.97,0.1 0.33,0 0.65,-0.03 0.98,-0.1 0.31,-0.06 0.63,-0.16 0.93,-0.28 0.3,-0.12 0.59,-0.28 0.86,-0.46 0.27,-0.18 0.52,-0.39 0.75,-0.62 0.23,-0.22 0.44,-0.48 0.63,-0.75 0.18,-0.27 0.33,-0.56 0.45,-0.86 0.13,-0.3 0.22,-0.62 0.29,-0.94 0.06,-0.32 0.09,-0.64 0.09,-0.97 0,-0.32 -0.03,-0.65 -0.09,-0.97 -0.07,-0.32 -0.16,-0.63 -0.29,-0.93 -0.12,-0.3 -0.27,-0.59 -0.45,-0.86 -0.19,-0.28 -0.4,-0.53 -0.63,-0.76 -0.23,-0.23 -0.48,-0.44 -0.75,-0.62 -0.27,-0.18 -0.56,-0.34 -0.86,-0.46 -0.3,-0.12 -0.62,-0.22 -0.93,-0.28 -0.64,-0.13 -1.31,-0.13 -1.95,0 -0.32,0.06 -0.63,0.16 -0.93,0.28 -0.31,0.12 -0.59,0.28 -0.86,0.46 -0.28,0.18 -0.53,0.39 -0.76,0.62 -0.23,0.23 -0.44,0.48 -0.62,0.76 -0.18,0.27 -0.33,0.56 -0.46,0.86 -0.12,0.3 -0.22,0.61 -0.28,0.93 -0.06,0.32 -0.1,0.65 -0.1,0.97 0,0.33 0.04,0.66 0.1,0.97 0.06,0.32 0.16,0.64 0.28,0.94z"/>
      <path class="fil0" d="M65.79 125.91c0.13,0.11 0.25,0.23 0.39,0.33 11.44,8.85 24.96,13.86 39.31,14.61 0.1,0 0.21,0.01 0.31,0.01 0.45,0.02 0.91,0.04 1.37,0.05 0.13,0.01 0.27,0.01 0.4,0.02 0.56,0.01 1.13,0.02 1.69,0.02 0.57,0 1.14,-0.01 1.71,-0.02 0.13,-0.01 0.25,-0.01 0.38,-0.02 0.47,-0.01 0.94,-0.03 1.4,-0.05 0.09,0 0.18,-0.01 0.27,-0.01 14.59,-0.76 28.29,-5.9 39.84,-15 0.16,-0.13 0.31,-0.26 0.45,-0.4 16.1,-12.93 26.43,-32.77 26.43,-54.98 0,-38.86 -31.62,-70.47 -70.48,-70.47 -38.86,0 -70.47,31.61 -70.47,70.47 0,22.48 10.57,42.52 27,55.44zm49.94 4.73c-0.3,0.03 -0.61,0.06 -0.92,0.09 -0.35,0.03 -0.69,0.06 -1.03,0.09 -0.6,0.04 -1.2,0.07 -1.8,0.1 -0.21,0.01 -0.41,0.02 -0.62,0.02 -0.69,0.03 -1.39,0.04 -2.1,0.04 -0.69,0 -1.38,-0.01 -2.07,-0.04 -0.2,0 -0.41,-0.01 -0.61,-0.02 -0.57,-0.02 -1.14,-0.06 -1.71,-0.1 -0.33,-0.02 -0.67,-0.05 -1,-0.08 -0.35,-0.03 -0.71,-0.06 -1.07,-0.1 -0.39,-0.04 -0.79,-0.09 -1.19,-0.14 -0.07,-0.01 -0.14,-0.02 -0.21,-0.03 -10.04,-1.3 -19.32,-5.08 -27.19,-10.7l0 -9.02c0,-11.87 5.89,-22.38 14.9,-28.78 5.63,4.4 12.71,7.03 20.39,7.03 7.68,0 14.76,-2.63 20.39,-7.03 9.01,6.4 14.9,16.91 14.9,28.78l0 8.67 0 0c-8.33,6.07 -18.28,10.07 -29.06,11.22zm-6.47 -120.68c33.37,0 60.51,27.15 60.51,60.51 0,15.26 -5.67,29.21 -15.02,39.86 -0.13,-14.54 -7.16,-27.47 -17.96,-35.66 3.71,-5.36 5.89,-11.85 5.89,-18.85 0,-1.65 -0.12,-3.3 -0.36,-4.92 -0.41,-2.72 -2.94,-4.6 -5.66,-4.2 -2.72,0.41 -4.6,2.94 -4.19,5.66 0.16,1.14 0.25,2.3 0.25,3.46 0,5.13 -1.68,9.88 -4.51,13.73 -2.29,3.12 -5.35,5.64 -8.89,7.3 -2.99,1.4 -6.31,2.19 -9.82,2.19 -3.51,0 -6.83,-0.79 -9.82,-2.19 -3.54,-1.66 -6.6,-4.18 -8.89,-7.3 -2.83,-3.85 -4.51,-8.6 -4.51,-13.73 0,-12.81 10.42,-23.22 23.22,-23.22 1.76,0 3.52,0.2 5.22,0.59 2.68,0.61 5.35,-1.06 5.97,-3.75 0.61,-2.68 -1.06,-5.35 -3.75,-5.96 -2.42,-0.56 -4.93,-0.84 -7.44,-0.84 -18.3,0 -33.18,14.88 -33.18,33.18 0,7 2.18,13.49 5.89,18.85 -10.91,8.27 -17.97,21.36 -17.97,36.08l0 0.11c-9.62,-10.72 -15.49,-24.88 -15.49,-40.39 0,-33.36 27.15,-60.51 60.51,-60.51z"/>
      <path class="fil0" d="M125.57 38.54c0.12,0.3 0.28,0.59 0.46,0.86 0.18,0.27 0.39,0.52 0.61,0.75 0.23,0.24 0.49,0.44 0.76,0.63 0.27,0.18 0.56,0.33 0.86,0.46 0.3,0.12 0.62,0.21 0.93,0.28 0.32,0.06 0.65,0.09 0.98,0.09 0.32,0 0.65,-0.03 0.97,-0.09 0.32,-0.07 0.63,-0.16 0.93,-0.28 0.3,-0.13 0.59,-0.28 0.86,-0.46 0.27,-0.19 0.53,-0.39 0.76,-0.63 0.23,-0.23 0.44,-0.48 0.62,-0.75 0.17,-0.27 0.33,-0.56 0.45,-0.86 0.13,-0.3 0.23,-0.61 0.29,-0.93 0.06,-0.33 0.1,-0.65 0.1,-0.98 0,-0.32 -0.04,-0.65 -0.1,-0.97 -0.06,-0.32 -0.16,-0.63 -0.29,-0.93 -0.12,-0.3 -0.28,-0.59 -0.45,-0.86 -0.18,-0.28 -0.39,-0.53 -0.62,-0.76 -0.23,-0.23 -0.49,-0.44 -0.76,-0.62 -0.27,-0.18 -0.56,-0.33 -0.86,-0.45 -0.3,-0.13 -0.61,-0.22 -0.93,-0.29 -0.65,-0.13 -1.3,-0.13 -1.95,0 -0.31,0.07 -0.63,0.16 -0.93,0.29 -0.3,0.12 -0.59,0.27 -0.86,0.45 -0.27,0.18 -0.53,0.39 -0.76,0.62 -0.22,0.23 -0.43,0.48 -0.61,0.76 -0.18,0.27 -0.34,0.56 -0.46,0.86 -0.13,0.3 -0.22,0.61 -0.29,0.93 -0.06,0.32 -0.09,0.65 -0.09,0.97 0,0.33 0.03,0.65 0.09,0.98 0.07,0.32 0.16,0.63 0.29,0.93z"/>
     </g>
    </g>
   </g>
   <g>
   </g>
   <g>
   </g>
   <g>
   </g>
   <g>
   </g>
   <g>
   </g>
   <g>
   </g>
   <g>
   </g>
   <g>
   </g>
   <g>
   </g>
   <g>
   </g>
   <g>
   </g>
   <g>
   </g>
   <g>
   </g>
   <g>
   </g>
   <g>
   </g>
  </g>
 </g>
</svg>
