<?xml version="1.0" encoding="UTF-8"?>
<!DOCTYPE svg PUBLIC "-//W3C//DTD SVG 1.1//EN" "http://www.w3.org/Graphics/SVG/1.1/DTD/svg11.dtd">
<!-- Creator: CorelDRAW 2020 (64 Bit) -->
<svg xmlns="http://www.w3.org/2000/svg" xml:space="preserve" width="2133px" height="2133px" version="1.1" style="shape-rendering:geometricPrecision; text-rendering:geometricPrecision; image-rendering:optimizeQuality; fill-rule:evenodd; clip-rule:evenodd"
viewBox="0 0 590.87 590.87"
 xmlns:xlink="http://www.w3.org/1999/xlink"
 xmlns:xodm="http://www.corel.com/coreldraw/odm/2003">
 <defs>
  <style type="text/css">
   <![CDATA[
    .fil0 {fill:white;fill-rule:nonzero}
   ]]>
  </style>
 </defs>
 <g id="Camada_x0020_1">
  <metadata id="CorelCorpID_0Corel-Layer"/>
  <g id="_2855854379248">
   <path class="fil0" d="M537.25 0.37c-0.62,-0.05 -1.14,-0.37 -1.78,-0.37l-264.65 0c-40.72,0 -73.86,33.14 -73.86,73.86l0 24.62c0,13.59 11.02,24.62 24.62,24.62 13.59,0 24.61,-11.03 24.61,-24.62l0 -24.62c0,-13.57 11.06,-24.62 24.63,-24.62l114.7 0 -7.51 2.51c-19.94,6.89 -33.34,25.68 -33.34,46.73l0 369.29 -73.85 0c-13.57,0 -24.63,-11.05 -24.63,-24.62l0 -49.24c0,-13.59 -11.02,-24.62 -24.61,-24.62 -13.6,0 -24.62,11.03 -24.62,24.62l0 49.24c0,40.72 33.14,73.86 73.86,73.86l73.85 0 0 24.62c0,27.15 22.08,49.24 49.24,49.24 5.27,0 10.27,-0.76 15.68,-2.44l147.92 -49.31c19.97,-6.9 33.36,-25.68 33.36,-46.73l0 -443.15c0,-28.71 -24.75,-51.21 -53.62,-48.87zm0 0z"/>
   <path class="fil0" d="M263.6 228.79l-98.48 -98.48c-7.04,-7.04 -17.62,-9.16 -26.83,-5.34 -9.19,3.81 -15.19,12.8 -15.19,22.75l0 73.86 -98.48 0c-13.59,0 -24.62,11.03 -24.62,24.61 0,13.6 11.03,24.63 24.62,24.63l98.48 0 0 73.85c0,9.95 6,18.93 15.19,22.75 9.21,3.82 19.79,1.7 26.83,-5.34l98.48 -98.48c9.63,-9.63 9.63,-25.18 0,-34.81zm0 0z"/>
  </g>
 </g>
</svg>
