<?xml version="1.0" encoding="UTF-8"?>
<!DOCTYPE svg PUBLIC "-//W3C//DTD SVG 1.1//EN" "http://www.w3.org/Graphics/SVG/1.1/DTD/svg11.dtd">
<!-- Creator: CorelDRAW 2020 (64 Bit) -->
<svg xmlns="http://www.w3.org/2000/svg" xml:space="preserve" width="44px" height="46px" version="1.1" style="shape-rendering:geometricPrecision; text-rendering:geometricPrecision; image-rendering:optimizeQuality; fill-rule:evenodd; clip-rule:evenodd"
viewBox="0 0 2.75 2.87"
 xmlns:xlink="http://www.w3.org/1999/xlink"
 xmlns:xodm="http://www.corel.com/coreldraw/odm/2003">
 <defs>
  <style type="text/css">
   <![CDATA[
    .fil0 {fill:#232C35;fill-rule:nonzero}
    .fil11 {fill:#37C47A;fill-rule:nonzero}
    .fil8 {fill:#52BBEF;fill-rule:nonzero}
    .fil10 {fill:#91E0E8;fill-rule:nonzero}
    .fil6 {fill:#C3DDF4;fill-rule:nonzero}
    .fil5 {fill:#D9EAFC;fill-rule:nonzero}
    .fil7 {fill:#DB722C;fill-rule:nonzero}
    .fil4 {fill:#EF8318;fill-rule:nonzero}
    .fil2 {fill:#EF9614;fill-rule:nonzero}
    .fil9 {fill:#FE3745;fill-rule:nonzero}
    .fil3 {fill:#FF9518;fill-rule:nonzero}
    .fil1 {fill:#FFAF10;fill-rule:nonzero}
   ]]>
  </style>
 </defs>
 <g id="Camada_x0020_1">
  <metadata id="CorelCorpID_0Corel-Layer"/>
  <circle class="fil0" cx="1.37" cy="1.5" r="1.37"/>
  <path class="fil1" d="M0.5 2.37c-0.01,0 -0.02,-0.02 -0.02,-0.03l0 -1.94 -0.19 0c-0.02,0 -0.03,0.01 -0.03,0.03l0 1.88c0.08,0.1 0.17,0.19 0.27,0.27l1.55 0c0.01,0 0.02,-0.01 0.02,-0.03l0 -0.18 -1.6 0 0 0z"/>
  <path class="fil2" d="M0.37 0.43c0,-0.02 0.01,-0.03 0.03,-0.03l-0.11 0c-0.02,0 -0.03,0.01 -0.03,0.03l0 1.88c0.03,0.04 0.07,0.08 0.11,0.12l0 -2z"/>
  <path class="fil3" d="M0.69 2.16c-0.02,0 -0.03,-0.01 -0.03,-0.02l0 -1.94 -0.17 0c-0.02,0 -0.03,0.01 -0.03,0.03l0 2.12c0,0.02 0.01,0.03 0.03,0.03l1.78 0c0.02,0 0.03,-0.01 0.03,-0.03l0 -0.19 -1.61 0 0 0z"/>
  <path class="fil4" d="M0.56 2.35l0 -2.12c0,-0.02 0.01,-0.03 0.03,-0.03l-0.1 0c-0.02,0 -0.03,0.01 -0.03,0.03l0 2.12c0,0.02 0.01,0.03 0.03,0.03l0.1 0c-0.02,0 -0.03,-0.01 -0.03,-0.03z"/>
  <path class="fil5" d="M2.49 2.15c0,0.02 -0.01,0.03 -0.03,0.03l-1.79 0c-0.01,0 -0.03,-0.01 -0.03,-0.03l0 -2.12c0,-0.02 0.02,-0.03 0.03,-0.03l1.79 0c0.02,0 0.03,0.01 0.03,0.03l0 2.12z"/>
  <path class="fil6" d="M0.76 2.15l0 -2.12c0,-0.02 0.01,-0.03 0.02,-0.03l-0.11 0c-0.01,0 -0.03,0.01 -0.03,0.03l0 2.12c0,0.02 0.02,0.03 0.03,0.03l0.11 0c-0.01,0 -0.02,-0.01 -0.02,-0.03z"/>
  <path class="fil7" d="M2.27 0.29l-0.39 0c-0.03,0 -0.04,-0.02 -0.04,-0.05 0,-0.02 0.01,-0.04 0.04,-0.04l0.39 0c0.02,0 0.04,0.02 0.04,0.04 0,0.03 -0.02,0.05 -0.04,0.05z"/>
  <path class="fil7" d="M2.27 0.43l-0.39 0c-0.03,0 -0.04,-0.02 -0.04,-0.04 0,-0.03 0.01,-0.05 0.04,-0.05l0.39 0c0.02,0 0.04,0.02 0.04,0.05 0,0.02 -0.02,0.04 -0.04,0.04z"/>
  <path class="fil7" d="M2.27 0.57l-0.39 0c-0.03,0 -0.04,-0.02 -0.04,-0.04 0,-0.02 0.01,-0.04 0.04,-0.04l0.39 0c0.02,0 0.04,0.02 0.04,0.04 0,0.02 -0.02,0.04 -0.04,0.04z"/>
  <path class="fil7" d="M2.27 0.71l-0.39 0c-0.03,0 -0.04,-0.01 -0.04,-0.04 0,-0.02 0.01,-0.04 0.04,-0.04l0.39 0c0.02,0 0.04,0.02 0.04,0.04 0,0.03 -0.02,0.04 -0.04,0.04z"/>
  <path class="fil8" d="M1.54 1.71l-0.66 0c-0.02,0 -0.04,-0.02 -0.04,-0.04 0,-0.02 0.02,-0.04 0.04,-0.04l0.66 0c0.02,0 0.04,0.02 0.04,0.04 0,0.02 -0.02,0.04 -0.04,0.04z"/>
  <path class="fil8" d="M1.54 1.86l-0.66 0c-0.02,0 -0.04,-0.02 -0.04,-0.05 0,-0.02 0.02,-0.04 0.04,-0.04l0.66 0c0.02,0 0.04,0.02 0.04,0.04 0,0.03 -0.02,0.05 -0.04,0.05z"/>
  <path class="fil8" d="M1.54 2l-0.66 0c-0.02,0 -0.04,-0.02 -0.04,-0.04 0,-0.03 0.02,-0.05 0.04,-0.05l0.66 0c0.02,0 0.04,0.02 0.04,0.05 0,0.02 -0.02,0.04 -0.04,0.04z"/>
  <path class="fil9" d="M2.27 0.96l-0.6 0c-0.02,0 -0.04,-0.01 -0.04,-0.04 0,-0.02 0.02,-0.04 0.04,-0.04l0.6 0c0.02,0 0.04,0.02 0.04,0.04 0,0.03 -0.02,0.04 -0.04,0.04z"/>
  <path class="fil9" d="M2.27 1.11l-0.6 0c-0.02,0 -0.04,-0.02 -0.04,-0.05 0,-0.02 0.02,-0.04 0.04,-0.04l0.6 0c0.02,0 0.04,0.02 0.04,0.04 0,0.03 -0.02,0.05 -0.04,0.05z"/>
  <path class="fil9" d="M2.27 1.25l-0.6 0c-0.02,0 -0.04,-0.02 -0.04,-0.04 0,-0.03 0.02,-0.04 0.04,-0.04l0.6 0c0.02,0 0.04,0.01 0.04,0.04 0,0.02 -0.02,0.04 -0.04,0.04z"/>
  <path class="fil9" d="M2.27 1.39l-0.6 0c-0.02,0 -0.04,-0.02 -0.04,-0.04 0,-0.02 0.02,-0.04 0.04,-0.04l0.6 0c0.02,0 0.04,0.02 0.04,0.04 0,0.02 -0.02,0.04 -0.04,0.04z"/>
  <path class="fil9" d="M0.81 1.21l0.16 0c0,-0.09 0.07,-0.16 0.16,-0.16l0 -0.17c-0.18,0 -0.32,0.15 -0.32,0.33z"/>
  <path class="fil10" d="M1.22 0.8l0 0.16c0.09,0 0.16,0.08 0.16,0.17l0.17 0c0,-0.18 -0.15,-0.33 -0.33,-0.33z"/>
  <path class="fil1" d="M1.3 1.21c0,0.09 -0.07,0.16 -0.17,0.16 -0.09,0 -0.16,-0.07 -0.16,-0.16l-0.16 0c0,0.18 0.14,0.33 0.32,0.33 0.19,0 0.33,-0.15 0.33,-0.33l-0.16 0z"/>
  <path class="fil1" d="M1 0.65l0 -0.4c0,-0.01 -0.01,-0.01 -0.02,-0.01l-0.1 0c-0.01,0 -0.02,0 -0.02,0.01l0 0.4 0.14 0z"/>
  <path class="fil9" d="M1.21 0.65l0 -0.29c0,-0.01 0,-0.02 -0.01,-0.02l-0.1 0c-0.01,0 -0.02,0.01 -0.02,0.02l0 0.29 0.13 0z"/>
  <path class="fil11" d="M1.43 0.65l0 -0.16c0,-0.01 0,-0.02 -0.01,-0.02l-0.1 0c-0.01,0 -0.02,0.01 -0.02,0.02l0 0.16 0.13 0z"/>
  <path class="fil10" d="M1.65 0.65l0 -0.4c0,-0.01 0,-0.01 -0.01,-0.01l-0.11 0c0,0 -0.01,0 -0.01,0.01l0 0.4 0.13 0z"/>
  <path class="fil9" d="M2.07 1.79c0,-0.01 0.01,-0.01 0.02,-0.01l0.07 0 0 -0.19c0,-0.02 -0.01,-0.03 -0.03,-0.03l-0.25 0c-0.02,0 -0.03,0.01 -0.03,0.03l0 0.25c0,0.02 0.01,0.03 0.03,0.03l0.19 0 0 -0.08z"/>
  <path class="fil11" d="M2.27 1.95c0,0.01 -0.02,0.03 -0.03,0.03l-0.15 0c-0.02,0 -0.03,-0.02 -0.03,-0.03l0 -0.16c0,-0.01 0.01,-0.02 0.03,-0.02l0.15 0c0.01,0 0.03,0.01 0.03,0.02l0 0.16z"/>
  <path class="fil8" d="M1.68 0.71l-0.85 0c-0.02,0 -0.04,-0.01 -0.04,-0.04 0,-0.02 0.02,-0.04 0.04,-0.04l0.85 0c0.03,0 0.04,0.02 0.04,0.04 0,0.03 -0.01,0.04 -0.04,0.04z"/>
 </g>
</svg>
