<?xml version="1.0" encoding="UTF-8"?>
<!DOCTYPE svg PUBLIC "-//W3C//DTD SVG 1.1//EN" "http://www.w3.org/Graphics/SVG/1.1/DTD/svg11.dtd">
<!-- Creator: CorelDRAW 2020 (64 Bit) -->
<svg xmlns="http://www.w3.org/2000/svg" xml:space="preserve" width="54px" height="46px" version="1.1" style="shape-rendering:geometricPrecision; text-rendering:geometricPrecision; image-rendering:optimizeQuality; fill-rule:evenodd; clip-rule:evenodd"
viewBox="0 0 5.37 4.55"
 xmlns:xlink="http://www.w3.org/1999/xlink"
 xmlns:xodm="http://www.corel.com/coreldraw/odm/2003">
 <defs>
  <style type="text/css">
   <![CDATA[
    .fil13 {fill:#507FCF}
    .fil5 {fill:#525252}
    .fil11 {fill:#52C46D}
    .fil8 {fill:#5B82A0}
    .fil4 {fill:gray}
    .fil9 {fill:#AAF589}
    .fil6 {fill:#B3B3B3}
    .fil12 {fill:#C92858}
    .fil3 {fill:#CCCCCC}
    .fil2 {fill:#E8E8E8}
    .fil1 {fill:#F59556}
    .fil10 {fill:#FA6969}
    .fil0 {fill:#FFCC73}
    .fil7 {fill:white}
    .fil14 {fill:#525252;fill-rule:nonzero}
   ]]>
  </style>
 </defs>
 <g id="Camada_x0020_1">
  <metadata id="CorelCorpID_0Corel-Layer"/>
  <path class="fil0" d="M0.69 1.87l2.03 0 0 -1.76c0,-0.06 -0.04,-0.11 -0.1,-0.11 -0.75,0 -1.08,0 -1.82,0 -0.06,0 -0.11,0.05 -0.11,0.11l0 1.76zm0 0z"/>
  <path class="fil1" d="M0.69 0.11l0 1.76 0.3 0 0 -1.76c0,-0.06 0.05,-0.11 0.11,-0.11l-0.3 0c-0.06,0 -0.11,0.05 -0.11,0.11zm0 0z"/>
  <path class="fil2" d="M1.45 0.38l0.5 0c0.05,0 0.08,-0.04 0.08,-0.08l0 -0.3 -0.66 0 0 0.3c0,0.04 0.03,0.08 0.08,0.08zm0 0z"/>
  <path class="fil3" d="M1.37 0.3c0,0.04 0.03,0.08 0.08,0.08l0.17 0c-0.05,0 -0.09,-0.04 -0.09,-0.08l0 -0.3 -0.16 0 0 0.3zm0 0z"/>
  <path class="fil4" d="M0.69 3.23l0 1.1c0,0.12 0.1,0.22 0.21,0.22 0.12,0 0.21,-0.1 0.21,-0.22l0 -1.1 -0.21 -0.15 -0.21 0.15zm0 0z"/>
  <path class="fil5" d="M0.69 3.23l0 1.1c0,0.12 0.1,0.22 0.21,0.22 0.03,0 0.06,0 0.08,-0.02 -0.08,-0.03 -0.13,-0.11 -0.13,-0.2l0 -1.1 -0.16 0zm0 0z"/>
  <path class="fil6" d="M1.11 3.23l3.59 0 0 0.46 -3.59 0 0 -0.46zm0 0z"/>
  <path class="fil4" d="M3.39 3.76l0 0.57c0,0.12 0.1,0.22 0.21,0.22 0.11,0 0.21,-0.1 0.21,-0.22l0 -0.96 -0.21 -0.14 -0.21 0.14 0 0.39zm0 0z"/>
  <path class="fil4" d="M4.7 3.87l0 0.46c0,0.12 0.09,0.22 0.2,0.22 0.12,0 0.21,-0.1 0.21,-0.22l0 -0.96 -0.21 -0.15 -0.2 0.15 0 0.5zm0 0z"/>
  <path class="fil5" d="M3.39 3.37l0 0.96c0,0.12 0.1,0.22 0.21,0.22 0.03,0 0.06,-0.01 0.09,-0.02 -0.07,-0.04 -0.12,-0.11 -0.12,-0.2l0 -0.96 -0.18 0 0 0zm0 0z"/>
  <path class="fil5" d="M4.7 3.37l0 0.96c0,0.12 0.09,0.22 0.2,0.22 0.04,0 0.07,-0.01 0.09,-0.02 -0.07,-0.04 -0.12,-0.11 -0.12,-0.2l0 -0.96 -0.17 0 0 0zm0 0z"/>
  <path class="fil2" d="M0.55 1.88c-0.31,0.06 -0.55,0.33 -0.55,0.66l0 0.02c0,0.37 0.3,0.67 0.68,0.67l3.97 0c0.37,0 0.67,-0.3 0.67,-0.67l0 -0.02c0,-0.37 -0.3,-0.67 -0.67,-0.67l-1.73 0c-0.08,0 -0.14,0 -0.2,0l0 0 -2.04 0c-0.05,0 -0.09,0 -0.13,0.01l0 0zm0 0z"/>
  <path class="fil4" d="M0.28 2.55c0,0.22 0.18,0.4 0.4,0.4l3.96 0c0.22,0 0.4,-0.18 0.4,-0.4 0,-0.22 -0.18,-0.4 -0.4,-0.4l-3.96 0c-0.01,0 -0.02,0 -0.04,0 -0.2,0.02 -0.36,0.19 -0.36,0.4l0 0zm0 0z"/>
  <path class="fil5" d="M0.64 2.15c-0.2,0.02 -0.36,0.19 -0.36,0.4 0,0.22 0.18,0.4 0.4,0.4l3.96 0c0.01,0 0.03,0 0.04,0l-3.62 0c-0.22,0 -0.4,-0.18 -0.4,-0.4 0,-0.13 0.05,-0.24 0.14,-0.31 0.06,-0.05 0.13,-0.08 0.22,-0.09l-0.34 0c-0.01,0 -0.02,0 -0.04,0zm0 0z"/>
  <path class="fil3" d="M0.55 1.88c-0.31,0.06 -0.55,0.33 -0.55,0.66l0 0.02c0,0.37 0.3,0.67 0.68,0.67l0.43 0c-0.23,0 -0.44,-0.12 -0.56,-0.3 -0.16,-0.06 -0.27,-0.21 -0.27,-0.38 0,-0.17 0.11,-0.32 0.27,-0.38 0.02,-0.02 0.03,-0.05 0.05,-0.07 0.1,-0.11 0.23,-0.19 0.38,-0.22 0.05,-0.01 0.09,-0.01 0.13,-0.01l-0.43 0c-0.05,0 -0.09,0 -0.13,0.01zm0 0z"/>
  <path class="fil7" d="M1.53 2.55c0,0.09 0.08,0.16 0.17,0.16 0.09,0 0.16,-0.07 0.16,-0.16 0,-0.09 -0.07,-0.16 -0.16,-0.16 -0.09,0 -0.17,0.07 -0.17,0.16zm0 0z"/>
  <path class="fil7" d="M2.28 2.55c0,0.09 0.07,0.16 0.16,0.16 0.09,0 0.16,-0.07 0.16,-0.16 0,-0.09 -0.07,-0.16 -0.16,-0.16 -0.09,0 -0.16,0.07 -0.16,0.16zm0 0z"/>
  <path class="fil2" d="M3.39 0.72l1.72 0c0.15,0 0.26,0.11 0.26,0.26l0 2.14c0,0.14 -0.11,0.25 -0.26,0.25l-1.72 0c-0.14,0 -0.26,-0.11 -0.26,-0.25l0 -2.14c0,-0.15 0.12,-0.26 0.26,-0.26l0 0zm0 0z"/>
  <path class="fil8" d="M3.62 1.88l1.27 0c0.05,0 0.09,-0.04 0.09,-0.09l0 -0.59c0,-0.05 -0.04,-0.09 -0.09,-0.09l-1.27 0c-0.05,0 -0.09,0.04 -0.09,0.09l0 0.59c0,0.03 0.01,0.06 0.03,0.08 0.02,0.01 0.04,0.01 0.06,0.01l0 0zm0 0z"/>
  <path class="fil9" d="M3.61 2.34c0,0.07 0.05,0.12 0.12,0.12l0.26 0c0.07,0 0.13,-0.05 0.13,-0.12 0,-0.07 -0.06,-0.12 -0.13,-0.12l-0.26 0c-0.07,0 -0.12,0.05 -0.12,0.12l0 0zm0 0z"/>
  <path class="fil10" d="M4.42 2.34c0,0.07 0.06,0.12 0.12,0.12l0.27 0c0.06,0 0.12,-0.05 0.12,-0.12 0,-0.07 -0.06,-0.12 -0.12,-0.12l-0.27 0c-0.06,0 -0.12,0.05 -0.12,0.12zm0 0z"/>
  <path class="fil10" d="M4.42 2.86c0,0.03 0.02,0.07 0.04,0.09 0,0 0,0 0.01,0 0.02,0.02 0.04,0.03 0.07,0.03l0.27 0c0.06,0 0.12,-0.05 0.12,-0.12 0,-0.01 0,-0.02 0,-0.03 -0.02,-0.05 -0.07,-0.09 -0.12,-0.09l-0.27 0c-0.06,0 -0.12,0.05 -0.12,0.12zm0 0z"/>
  <path class="fil9" d="M3.65 2.95c0.02,0.02 0.05,0.03 0.08,0.03l0.26 0c0.03,0 0.06,-0.01 0.08,-0.03 0,0 0,0 0,0 0.03,-0.02 0.04,-0.06 0.04,-0.09 0,-0.07 -0.05,-0.12 -0.12,-0.12l-0.26 0c-0.07,0 -0.13,0.05 -0.13,0.12 0,0.03 0.02,0.07 0.04,0.09 0.01,0 0.01,0 0.01,0zm0 0z"/>
  <path class="fil11" d="M3.61 2.34c0,0.07 0.05,0.12 0.12,0.12l0.13 0c-0.07,0 -0.12,-0.05 -0.12,-0.12 0,-0.07 0.05,-0.12 0.12,-0.12l-0.13 0c-0.07,0 -0.12,0.05 -0.12,0.12l0 0zm0 0z"/>
  <path class="fil11" d="M3.6 2.86c0,0.03 0.02,0.07 0.04,0.09l0.01 0c0.02,0.02 0.05,0.03 0.08,0.03l0.13 0c-0.03,0 -0.06,-0.01 -0.08,-0.03l0 0c-0.03,-0.02 -0.05,-0.06 -0.05,-0.09 0,-0.07 0.06,-0.12 0.13,-0.12l-0.13 0c-0.07,0 -0.13,0.05 -0.13,0.12zm0 0z"/>
  <path class="fil12" d="M4.42 2.34c0,0.07 0.06,0.12 0.12,0.12l0.13 0c-0.06,0 -0.12,-0.05 -0.12,-0.12 0,-0.07 0.06,-0.12 0.12,-0.12l-0.13 0c-0.06,0 -0.12,0.05 -0.12,0.12zm0 0z"/>
  <path class="fil12" d="M4.42 2.86c0,0.07 0.06,0.12 0.12,0.12l0.13 0c-0.06,0 -0.12,-0.05 -0.12,-0.12 0,-0.07 0.06,-0.12 0.12,-0.12l-0.13 0c-0.06,0 -0.12,0.05 -0.12,0.12zm0 0z"/>
  <path class="fil13" d="M3.53 1.2l0 0.59c0,0.03 0.01,0.06 0.03,0.08 0.02,0.01 0.04,0.01 0.06,0.01l0.22 0c-0.02,0 -0.04,0 -0.05,-0.01 -0.03,-0.02 -0.04,-0.05 -0.04,-0.08l0 -0.59c0,-0.05 0.04,-0.09 0.09,-0.09l-0.22 0c-0.05,0 -0.09,0.04 -0.09,0.09l0 0zm0 0z"/>
  <path class="fil3" d="M3.13 0.98l0 2.14c0,0.04 0.01,0.08 0.03,0.11 0.04,0.09 0.13,0.14 0.23,0.14l0.36 0c-0.1,0 -0.19,-0.05 -0.23,-0.14 -0.02,-0.03 -0.03,-0.07 -0.03,-0.11l0 -2.14c0,-0.15 0.12,-0.26 0.26,-0.26l-0.36 0c-0.14,0 -0.26,0.11 -0.26,0.26l0 0zm0 0z"/>
  <path class="fil7" d="M0.79 2.55c0,0.09 0.07,0.17 0.16,0.17 0.09,0 0.17,-0.08 0.17,-0.17 0,-0.09 -0.08,-0.16 -0.17,-0.16 -0.09,0 -0.16,0.07 -0.16,0.16zm0 0z"/>
  <path class="fil14" d="M4.89 1.03l-1.27 0c-0.1,0 -0.18,0.08 -0.18,0.17l0 0.59c0,0.1 0.08,0.17 0.18,0.17l0.51 0c0.04,0 0.08,-0.03 0.08,-0.08 0,-0.04 -0.04,-0.08 -0.08,-0.08l-0.51 0c-0.01,0 -0.01,0 -0.01,-0.01l0 -0.59c0,0 0,-0.01 0.01,-0.01l1.27 0c0,0 0.01,0.01 0.01,0.01l0 0.59c0,0.01 -0.01,0.01 -0.01,0.01l-0.41 0c-0.05,0 -0.08,0.04 -0.08,0.08 0,0.05 0.03,0.08 0.08,0.08l0.41 0c0.09,0 0.17,-0.07 0.17,-0.17l0 -0.59c0,-0.09 -0.08,-0.17 -0.17,-0.17l0 0zm0 0z"/>
  <path class="fil14" d="M3.99 2.13l-0.26 0c-0.11,0 -0.2,0.1 -0.2,0.21 0,0.11 0.09,0.2 0.2,0.2l0.26 0c0.12,0 0.21,-0.09 0.21,-0.2 0,-0.11 -0.09,-0.21 -0.21,-0.21zm0 0.25l-0.26 0c-0.02,0 -0.04,-0.02 -0.04,-0.04 0,-0.02 0.02,-0.04 0.04,-0.04l0.26 0c0.03,0 0.04,0.02 0.04,0.04 0,0.02 -0.01,0.04 -0.04,0.04zm0 0z"/>
  <path class="fil14" d="M3.99 2.65l-0.26 0c-0.12,0 -0.21,0.1 -0.21,0.21 0,0.11 0.09,0.2 0.21,0.2l0.26 0c0.11,0 0.2,-0.09 0.2,-0.2 0,-0.11 -0.09,-0.21 -0.2,-0.21zm0 0.25l-0.26 0c-0.03,0 -0.05,-0.02 -0.05,-0.04 0,-0.02 0.02,-0.04 0.05,-0.04l0.26 0c0.02,0 0.04,0.02 0.04,0.04 0,0.02 -0.02,0.04 -0.04,0.04zm0 0z"/>
  <path class="fil14" d="M4.53 2.54l0.26 0c0.12,0 0.21,-0.09 0.21,-0.2 0,-0.11 -0.09,-0.21 -0.21,-0.21l-0.26 0c-0.11,0 -0.2,0.1 -0.2,0.21 0,0.11 0.09,0.2 0.2,0.2zm0 -0.24l0.26 0c0.03,0 0.05,0.02 0.05,0.04 0,0.02 -0.02,0.04 -0.05,0.04l-0.26 0c-0.02,0 -0.04,-0.02 -0.04,-0.04 0,-0.02 0.02,-0.04 0.04,-0.04zm0 0z"/>
  <path class="fil14" d="M4.81 2.65l-0.27 0c-0.11,0 -0.2,0.1 -0.2,0.21 0,0.11 0.09,0.2 0.2,0.2l0.27 0c0.11,0 0.2,-0.09 0.2,-0.2 0,-0.11 -0.09,-0.21 -0.2,-0.21zm0 0.25l-0.27 0c-0.02,0 -0.04,-0.02 -0.04,-0.04 0,-0.02 0.02,-0.04 0.04,-0.04l0.27 0c0.02,0 0.04,0.02 0.04,0.04 0,0.02 -0.02,0.04 -0.04,0.04zm0 0z"/>
 </g>
</svg>
