<?xml version="1.0" encoding="UTF-8"?>
<!DOCTYPE svg PUBLIC "-//W3C//DTD SVG 1.1//EN" "http://www.w3.org/Graphics/SVG/1.1/DTD/svg11.dtd">
<!-- Creator: CorelDRAW 2020 (64 Bit) -->
<svg xmlns="http://www.w3.org/2000/svg" xml:space="preserve" width="47px" height="46px" version="1.1" style="shape-rendering:geometricPrecision; text-rendering:geometricPrecision; image-rendering:optimizeQuality; fill-rule:evenodd; clip-rule:evenodd"
viewBox="0 0 1.95 1.91"
 xmlns:xlink="http://www.w3.org/1999/xlink"
 xmlns:xodm="http://www.corel.com/coreldraw/odm/2003">
 <defs>
  <style type="text/css">
   <![CDATA[
    .fil0 {fill:white}
   ]]>
  </style>
 </defs>
 <g id="Camada_x0020_1">
  <metadata id="CorelCorpID_0Corel-Layer"/>
  <path class="fil0" d="M0 0.94c0,0.17 0.01,0.25 0.07,0.4 0,0.01 0.01,0.02 0.01,0.03 0.01,0.02 0.01,0.02 0.02,0.04 0.03,0.06 0.08,0.15 0.14,0.2 0.01,0.01 0.01,0.02 0.02,0.03 0.02,0.02 0.03,0.03 0.05,0.05 0.03,0.03 0.07,0.06 0.11,0.09 0.04,0.02 0.08,0.05 0.12,0.07 0.03,0.02 0.12,0.06 0.15,0.06 0.03,0 0.05,-0.03 0.05,-0.06l0 -0.18c-0.03,0 -0.04,0.01 -0.07,0.01 -0.12,0 -0.22,-0.01 -0.26,-0.12 -0.03,-0.06 -0.06,-0.11 -0.11,-0.15 -0.02,0 -0.04,-0.02 -0.04,-0.04 0.05,-0.03 0.12,0.01 0.16,0.04 0.04,0.05 0.08,0.16 0.19,0.15 0.05,0 0.08,0 0.12,-0.02 0.02,-0.01 0.01,-0.05 0.04,-0.1 0.01,-0.01 0.02,-0.02 0.03,-0.03 -0.03,-0.01 -0.07,-0.01 -0.1,-0.02 -0.1,-0.02 -0.19,-0.06 -0.25,-0.14 -0.03,-0.03 -0.05,-0.07 -0.06,-0.11 -0.05,-0.15 -0.05,-0.31 0.04,-0.44 0.03,-0.05 0.02,-0.02 0.01,-0.08 -0.01,-0.06 0,-0.22 0.03,-0.22 0.06,0 0.1,0.02 0.14,0.04 0.07,0.03 0.11,0.07 0.13,0.06 0.06,-0.01 0.11,-0.02 0.17,-0.02 0.03,0 0.05,-0.01 0.08,-0.01 0.07,0.01 0.14,0.01 0.21,0.03 0.01,0.01 0.02,0.01 0.03,0 0.04,-0.02 0.05,-0.03 0.13,-0.07 0.04,-0.02 0.06,-0.03 0.13,-0.03 0.01,0.07 0.03,0.05 0.03,0.17 0,0.02 -0.01,0.03 -0.01,0.05 0,0.01 -0.01,0.04 -0.01,0.04 0,0.02 0.17,0.17 0.07,0.47 -0.04,0.12 -0.12,0.19 -0.23,0.23 -0.05,0.03 -0.13,0.05 -0.19,0.05 0.03,0.03 0.04,0.04 0.06,0.09 0.02,0.09 -0.01,0.31 0.01,0.37 0.01,0.02 0.02,0.04 0.05,0.04 0.02,0 0.12,-0.05 0.14,-0.06 0.03,-0.01 0.07,-0.03 0.09,-0.05l0.09 -0.06c0.04,-0.03 0.07,-0.06 0.1,-0.1 0.01,-0.01 0.01,-0.01 0.02,-0.02 0.06,-0.06 0.11,-0.14 0.14,-0.21 0.06,-0.12 0.1,-0.26 0.1,-0.39 0,-0.13 -0.01,-0.26 -0.06,-0.38 -0.02,-0.05 -0.04,-0.1 -0.07,-0.16l-0.05 -0.07c-0.03,-0.05 -0.07,-0.09 -0.11,-0.13 -0.09,-0.09 -0.2,-0.16 -0.32,-0.21 -0.01,-0.01 -0.03,-0.01 -0.04,-0.02 -0.17,-0.06 -0.38,-0.07 -0.55,-0.02 -0.09,0.02 -0.17,0.05 -0.26,0.1 -0.07,0.04 -0.14,0.09 -0.2,0.15 -0.06,0.06 -0.11,0.13 -0.16,0.2 -0.01,0.03 -0.02,0.05 -0.04,0.08 -0.04,0.09 -0.09,0.25 -0.09,0.38z"/>
 </g>
</svg>
