<?xml version="1.0" encoding="UTF-8"?>
<!DOCTYPE svg PUBLIC "-//W3C//DTD SVG 1.1//EN" "http://www.w3.org/Graphics/SVG/1.1/DTD/svg11.dtd">
<!-- Creator: CorelDRAW 2020 (64 Bit) -->
<svg xmlns="http://www.w3.org/2000/svg" xml:space="preserve" width="44px" height="44px" version="1.1" style="shape-rendering:geometricPrecision; text-rendering:geometricPrecision; image-rendering:optimizeQuality; fill-rule:evenodd; clip-rule:evenodd"
viewBox="0 0 1.91 1.91"
 xmlns:xlink="http://www.w3.org/1999/xlink"
 xmlns:xodm="http://www.corel.com/coreldraw/odm/2003">
 <defs>
  <style type="text/css">
   <![CDATA[
    .fil0 {fill:white}
   ]]>
  </style>
 </defs>
 <g id="Camada_x0020_1">
  <metadata id="CorelCorpID_0Corel-Layer"/>
  <path class="fil0" d="M0.28 0.74l0 -0.01 0.01 -0.01 0.01 -0.01c0,-0.01 -0.01,-0.01 0.01,-0.01l0.01 0.01c0.01,-0.02 0.22,-0.02 0.23,-0.01l0.01 0 0.01 0.01c0.04,0.04 0.02,0.16 0.02,0.23l0 0.51c0,0.07 0.02,0.2 -0.02,0.24 0,0.01 0,0.01 -0.01,0.01l-0.25 0c-0.02,0 -0.01,0 -0.01,-0.01l-0.01 -0.01 -0.01 -0.01 0 -0.01c-0.02,-0.01 -0.01,-0.76 -0.01,-0.87l0.01 -0.05zm0.9 0.23l-0.01 0 -0.03 0c0,0.02 0.01,0.01 0,0.01l-0.02 0.01 -0.01 0.01c0,0.01 0,0.01 -0.01,0.01l-0.01 0.03 -0.01 0 0 0.01 -0.01 0.01 0 0.01 -0.01 0.02 0 0.01 -0.01 0.02 0 0.02 -0.01 0.52 -0.01 0.03 -0.01 0.01c-0.05,0 -0.1,0 -0.15,0 -0.06,0 -0.11,0.01 -0.13,-0.03 -0.02,0 -0.01,0 -0.01,-0.01 0.01,-0.15 0,-0.32 0,-0.47 0,-0.1 -0.01,-0.4 0.01,-0.47 0,-0.01 -0.01,-0.01 0.01,-0.01l0.01 -0.01 0.01 0c0.03,-0.01 0.21,-0.01 0.24,0 0.03,0.01 0.02,0.01 0.03,0.04 0,0 0.01,0 0.01,0 0,0.01 0,0.01 0,0.01 0.01,0.03 0,0.03 0.01,0.06 0.02,-0.03 0.03,-0.04 0.06,-0.06l0.01 -0.01 0.02 -0.01c0,-0.01 -0.01,-0.01 0.01,-0.01l0 0c0,-0.01 0,-0.01 0.01,-0.01l0.02 0 0.01 -0.01 0.01 0 0.02 0 0.01 0 0.02 -0.01 0.02 0 0.13 0 0.02 0.01 0.02 0 0.02 0 0.01 0c0.02,0 0.01,0 0.01,0.01 0.03,0.01 0.04,0.02 0.06,0.03 0.01,0 0.01,-0.01 0.01,0.01l0.01 0.01c0.03,0.01 0.03,0.02 0.05,0.05l0.01 0 0.01 0.02 0 0.01 0 0.01 0.01 0.01 0 0c0.02,0 0.01,0 0.01,0.01l0 0.01c0.01,0 0.01,0 0.01,0.01l0 0.02 0.01 0.01 0 0.02 0.01 0.01 0 0.02 0.01 0.02 -0.01 0.03c0.02,0.01 0.02,0.02 0.02,0.04l0 0.15c0.01,0.04 0.01,0.42 0,0.45 0,0 0,0 -0.01,0l-0.01 0.03 -0.01 0.01c-0.05,0 -0.1,0 -0.15,0 -0.06,0 -0.11,0.01 -0.14,-0.03 -0.01,0 -0.01,0 -0.01,-0.01l0 -0.52 0 -0.03 -0.01 -0.02 0 -0.02c-0.01,0 -0.01,0 0,-0.01l-0.01 -0.01 0 -0.01 -0.01 -0.02 -0.01 -0.01 -0.02 -0.02 -0.01 -0.01 0 0 -0.01 0 -0.01 -0.01 -0.01 0 -0.02 -0.01 -0.07 0 -0.01 0.01zm-0.95 -0.53l0 -0.06 0.01 -0.02 0 -0.01c0,-0.01 -0.01,-0.01 0.01,-0.01l0 -0.01 0 -0.01 0 -0.01 0.01 0 0.01 -0.02 0.01 -0.01 0.01 -0.01 0.01 -0.01 0.01 -0.01 0.04 -0.02 0.02 -0.01 0.01 0 0.01 -0.01 0.08 0 0.02 0.01 0.03 0.01c0.02,0 0.01,-0.01 0.01,0.01l0.02 0.01 0.01 0 0.01 0.01 0.01 0.01 0.01 0.01 0 0.01c0.02,0 0.01,-0.01 0.01,0.01l0.02 0.04 0.01 0.01 0 0.01 0 0.02 0 0.07 0 0.02 0 0.01c0,0.01 0,0.01 -0.01,0.01l0 0.01 -0.01 0.01 0 0.01 -0.01 0.01c-0.02,0.03 -0.02,0.03 -0.05,0.05l-0.01 0.01 -0.01 0c0,0.02 0,0.01 -0.01,0.01l-0.02 0 -0.01 0.01 -0.02 0c-0.02,0.02 -0.04,0.01 -0.07,0.01 -0.01,0 -0.01,0 -0.01,-0.01l-0.01 0 -0.02 -0.01 -0.04 -0.01 -0.01 -0.01c-0.02,-0.02 -0.02,-0.02 -0.04,-0.05l-0.01 0 0 -0.02c-0.02,0 -0.01,0 -0.01,-0.01l-0.01 -0.01 0 -0.02 0 -0.01 -0.01 -0.02zm-0.1 -0.43l-0.02 0 -0.01 0.01 -0.01 0 -0.01 0.01 -0.01 0 -0.01 0.01 -0.01 0.01 -0.01 0.01 -0.01 0.01 0 0.01 -0.01 0.01 0 0.01 -0.01 0.01 0 0.02 -0.01 0.02 0 1.61 0.01 0.02 0 0.02 0.01 0.01 0 0.01 0.01 0 0 0.02 0.01 0.01 0.01 0.01 0.01 0.01 0.01 0.01 0.01 0 0.01 0.01 0.01 0 0.01 0.01 0.02 0 0.01 0 0.01 0.01 1.6 0 0.02 -0.01 0.01 0 0.02 0 0.01 -0.01 0 0 0.01 -0.01 0.02 -0.01 0.01 0 0.01 -0.01 0.01 -0.01 0 -0.01 0.01 -0.02 0.01 0 0 -0.01 0.01 -0.02 0 -0.01 0.01 -0.03 0 -1.59 -0.01 -0.03 0 -0.01c-0.01,0 -0.01,0 -0.01,-0.01l0 -0.02 -0.01 -0.01 -0.01 -0.01 0 -0.01 -0.01 -0.01 -0.01 -0.01 -0.01 -0.01 -0.02 0 -0.01 -0.01 -0.04 -0.01 -0.02 -0.01 -1.6 0 -0.02 0.01z"/>
 </g>
</svg>
